<svg version="1.1" id="Layer_1" xmlns="http://www.w3.org/2000/svg" xmlns:xlink="http://www.w3.org/1999/xlink" x="0px" y="0px"
	 width="100%" viewBox="0 0 125 118" enable-background="new 0 0 125 118" xml:space="preserve">
<path fill="#000000" opacity="1.000000" stroke="none" 
	d="
M126.000000,51.000000 
	C126.000000,52.388889 126.000000,53.777779 125.531395,55.589901 
	C118.695656,56.009369 112.326492,55.926235 105.963615,56.089020 
	C105.029510,56.112915 104.125298,57.305202 103.248817,58.360172 
	C106.209183,59.182564 109.188263,59.374821 112.018517,60.127052 
	C113.232651,60.449745 114.137451,61.936333 115.089142,63.325413 
	C115.123253,70.846573 115.123215,70.835068 122.078804,70.810013 
	C123.385620,70.805305 124.692924,70.933266 126.000000,71.000000 
	C126.000000,86.926735 126.000000,102.853462 126.000000,119.000000 
	C110.313126,119.000000 94.625221,119.000000 78.326492,118.571960 
	C78.092957,115.250275 77.681061,111.910011 79.012932,109.556587 
	C81.729355,104.756660 87.055359,104.858871 92.771706,108.901924 
	C93.786858,109.619911 95.349083,109.564415 96.658684,109.866089 
	C96.913940,108.713364 97.542831,107.499832 97.366676,106.417297 
	C95.593956,95.523277 99.434967,91.702370 110.133957,94.254913 
	C111.499870,93.965828 112.874748,93.624657 113.832932,92.799561 
	C114.132332,92.541740 113.307220,90.978027 112.865692,89.807121 
	C112.523506,89.348343 112.269272,89.149872 111.880432,88.779228 
	C111.596397,88.268059 111.334564,88.081528 111.001770,87.996368 
	C111.000000,88.000610 111.008545,87.994484 110.977692,87.672173 
	C110.604942,86.566032 110.263046,85.782211 110.055077,84.767784 
	C110.464561,84.316368 110.740120,84.095551 111.434349,83.912048 
	C114.732346,83.492859 117.611664,83.036369 120.490990,82.579880 
	C120.459618,82.081734 120.428246,81.583588 120.396873,81.085442 
	C116.944046,81.085442 113.491219,81.085442 109.568802,81.048996 
	C103.987984,81.013420 98.855530,80.746429 93.776108,81.148819 
	C91.782639,81.306732 89.907898,82.963356 87.709114,84.071922 
	C86.930336,84.522827 86.421524,84.839256 85.663506,85.169586 
	C85.129005,85.383263 84.941101,85.651314 84.624374,86.062195 
	C84.118561,86.330795 83.960747,86.597038 83.627441,87.121521 
	C76.974731,91.896049 69.705353,93.530327 61.806808,93.564209 
	C54.184975,93.170502 47.797054,90.404686 41.908062,85.703102 
	C40.811279,84.608040 39.818108,83.818024 38.705078,82.694229 
	C37.045345,81.991890 35.505463,81.623329 33.644897,81.205856 
	C32.892849,81.172493 32.461491,81.188049 31.580715,81.142563 
	C28.412754,81.110237 25.694206,81.138962 22.512451,81.118011 
	C17.038778,81.068344 12.028316,81.068344 7.017852,81.068344 
	C6.950136,81.512535 6.882420,81.956734 6.814704,82.400925 
	C9.115685,82.919579 11.453309,83.317223 13.704891,83.999016 
	C15.230295,84.460922 16.634771,85.322182 18.054394,86.021454 
	C18.015459,86.038078 18.017170,86.122734 17.729786,86.246155 
	C17.020638,87.261398 16.598875,88.153236 15.941081,89.155075 
	C15.467605,89.513840 15.230160,89.762596 14.684090,90.037659 
	C10.431072,92.655968 15.050813,93.513908 14.983727,95.416641 
	C17.308771,94.386978 19.199055,93.549858 21.393593,92.738182 
	C22.103939,92.742035 22.510031,92.720444 23.267750,92.822838 
	C30.212362,96.064621 31.067743,98.056831 29.604719,106.150482 
	C29.400442,107.280571 29.881010,108.534462 30.044559,109.731041 
	C31.112312,109.568222 32.180065,109.405396 33.491486,109.021240 
	C35.135700,107.806648 36.536243,106.813385 38.200623,105.854225 
	C38.978367,105.794624 39.492283,105.700912 40.435471,105.605316 
	C41.717655,105.474854 42.570572,105.346291 43.450287,105.331490 
	C43.477093,105.445251 43.858055,105.547623 44.057877,105.830032 
	C45.532894,107.062492 46.808090,108.012550 48.130402,109.258614 
	C48.516491,110.014526 48.855469,110.474426 49.223038,111.299698 
	C49.498280,113.101761 49.744926,114.538452 49.828682,116.089676 
	C49.442360,116.402718 49.376011,116.644302 49.452866,117.292816 
	C49.292656,118.104446 49.146324,118.552223 48.999996,119.000000 
	C33.080891,119.000000 17.161781,119.000000 1.000000,119.000000 
	C1.000000,106.313469 1.000000,93.625397 1.326282,80.456451 
	C3.875329,79.615440 6.098094,79.255302 8.892047,78.802612 
	C8.791828,77.183670 8.651479,74.916458 8.432143,71.373306 
	C6.767070,73.339317 6.040242,74.197510 5.772544,74.513596 
	C3.911955,73.923515 2.455977,73.461761 1.000000,73.000000 
	C1.000000,72.555557 1.000000,72.111107 1.449749,71.187340 
	C6.668752,70.632965 11.442235,70.397865 16.206179,70.523750 
	C22.038263,70.677864 27.733076,70.819611 30.393469,63.813763 
	C31.652052,65.244591 32.389137,66.082550 33.240295,67.269066 
	C36.678677,73.689789 42.008572,69.715561 47.715012,71.255775 
	C45.786812,68.604408 44.775448,67.213730 43.738312,65.430054 
	C43.642750,64.783920 43.572964,64.530800 43.430164,64.169846 
	C43.357151,64.062004 43.100323,64.018616 42.944443,63.711426 
	C41.888470,61.897209 40.988380,60.390190 39.882256,58.564186 
	C36.036385,53.855919 31.399124,56.697075 25.876595,55.834301 
	C27.364454,57.966129 28.111700,59.036793 28.627075,60.428188 
	C25.625998,60.132256 22.113373,63.183758 20.035942,59.035896 
	C20.016676,59.013115 20.060558,59.054867 20.345776,59.019566 
	C20.723284,58.285946 20.815575,57.587631 20.718092,56.484581 
	C16.290386,54.376450 12.164565,53.395702 8.557756,58.006798 
	C6.819408,60.620159 5.540904,63.201653 3.928894,65.554672 
	C3.392415,66.337761 2.000724,66.534958 1.000000,67.000000 
	C1.000000,45.084766 1.000000,23.169533 1.000000,1.000000 
	C16.686646,1.000000 32.374664,1.000000 48.682770,1.296726 
	C49.548977,2.390305 49.795101,3.187158 50.026718,4.375380 
	C49.851345,5.793259 49.690472,6.819770 49.412788,8.106397 
	C49.273407,8.932856 49.250832,9.499199 48.949341,10.214924 
	C48.143543,11.001802 47.616661,11.639297 46.728409,12.365452 
	C40.536057,16.075199 36.046455,13.364688 32.050770,8.882400 
	C30.589291,10.114829 29.500536,11.032947 28.388323,11.970846 
	C30.253807,16.427034 31.659344,20.832829 27.881853,24.625114 
	C23.988808,28.533405 19.417444,27.285833 14.846857,25.323666 
	C13.972547,26.608728 13.170520,27.787548 12.988950,28.054420 
	C14.528533,31.139347 15.700504,33.487675 16.477879,35.906067 
	C13.842463,36.431831 11.601645,36.887524 9.360826,37.343220 
	C9.406005,37.794174 9.451183,38.245125 9.496361,38.696079 
	C12.376019,38.696079 15.255675,38.696079 18.593201,38.730797 
	C24.659845,38.750252 30.268620,38.734993 36.203598,38.806107 
	C37.362240,38.264454 38.194683,37.636433 39.312431,36.867001 
	C40.735901,35.487930 41.874062,34.250267 43.363556,32.931759 
	C54.177677,26.082170 65.309494,25.272699 77.127151,29.407749 
	C78.509155,30.158407 79.727898,30.619505 80.966751,31.047979 
	C80.986847,31.015354 80.917046,31.046999 81.003906,31.289488 
	C81.392319,31.627747 81.693863,31.723516 82.269028,31.924843 
	C83.019707,32.358204 83.496750,32.686008 84.113724,33.332993 
	C88.138535,37.702629 92.542961,40.177696 98.471931,38.970119 
	C100.550240,38.546818 102.769455,38.815411 105.384506,38.858231 
	C109.880486,38.990955 113.916275,39.033508 117.793221,39.399433 
	C116.804268,41.826893 115.974167,43.930988 115.087692,46.369202 
	C115.081268,47.149002 115.131218,47.594677 115.122375,48.410385 
	C114.550552,49.507290 114.060966,50.844059 113.520805,50.864819 
	C109.085129,51.035301 104.640045,50.961033 100.151184,50.961033 
	C100.007469,49.057621 99.895859,47.579403 99.876717,45.689453 
	C99.116158,43.895599 98.263123,42.513477 97.410088,41.131355 
	C95.418137,44.050091 88.362411,38.509670 89.111153,46.458672 
	C89.374596,48.377823 89.356216,51.064175 90.037163,51.255001 
	C93.525352,52.232506 97.217529,53.154106 100.794289,53.008862 
	C109.209511,52.667137 117.599686,51.708828 126.000000,51.000000 
M56.244282,41.081966 
	C54.829052,42.054260 53.413822,43.026554 51.429131,44.240059 
	C50.844215,45.282543 50.259300,46.325027 49.133888,48.038986 
	C49.133888,49.615501 49.133888,51.192020 49.133888,52.660004 
	C54.354534,52.660004 59.133930,52.660004 63.442062,52.660004 
	C62.395260,51.834251 61.254742,50.934566 61.037170,50.045303 
	C68.281769,50.041950 75.526398,50.025295 82.770950,50.040710 
	C86.543037,50.048737 87.740280,48.430092 86.078041,44.268829 
	C87.188713,40.023933 84.118820,41.238575 81.100769,41.019604 
	C73.046371,41.070374 64.991974,41.121143 56.244282,41.081966 
M77.456131,74.883011 
	C75.536766,74.353134 73.617409,73.823250 71.545746,73.251328 
	C71.545746,75.632988 71.545746,77.634277 71.545746,80.529434 
	C73.153885,79.338913 74.004463,78.709221 75.060562,78.765984 
	C79.369499,78.858406 83.678436,78.950836 88.539108,79.561058 
	C90.217590,79.398933 93.063698,79.689819 93.337975,78.982880 
	C93.960182,77.379158 93.788940,75.033760 92.976349,73.500923 
	C92.602852,72.796394 89.962265,73.293274 88.349693,73.246178 
	C87.238762,73.213737 86.127785,73.182716 84.270767,73.090965 
	C82.186729,73.774651 80.102699,74.458344 77.456131,74.883011 
M97.640800,64.765778 
	C97.702499,64.156258 97.764198,63.546738 97.967171,62.156448 
	C98.691879,60.299263 99.416588,58.442078 100.169922,56.511520 
	C90.123558,54.932911 88.678802,55.949318 89.014122,64.573364 
	C89.340881,65.073723 89.667633,65.574081 89.658852,66.767593 
	C89.521782,68.059273 89.384712,69.350952 89.225037,70.855591 
	C91.811928,70.855591 93.679115,71.104286 95.441048,70.780388 
	C96.972778,70.498810 98.385498,69.569885 99.850815,68.927025 
	C98.933167,67.648315 98.015518,66.369614 97.640800,64.765778 
M48.995281,65.752037 
	C48.421684,70.088013 50.729465,71.169853 54.557022,70.966743 
	C55.995178,70.890434 57.474884,71.597076 58.518108,72.135559 
	C58.239159,72.319870 58.099579,72.579185 57.792805,73.533279 
	C57.632591,73.823929 57.365135,74.101669 57.328373,74.407181 
	C56.835598,78.502106 54.544212,77.231895 52.246151,75.712555 
	C53.366829,75.567337 54.487507,75.422127 55.608189,75.276909 
	C55.726639,74.839035 55.845093,74.401154 55.963543,73.963272 
	C54.523941,73.568916 52.310986,72.419418 51.805458,72.937134 
	C50.747437,74.020676 50.061638,76.050987 50.256607,77.558807 
	C50.376087,78.482803 52.348202,79.685425 53.601223,79.838432 
	C56.339058,80.172722 59.191765,80.208282 61.915340,79.807381 
	C63.970680,79.504852 65.898445,78.335594 67.882996,77.552101 
	C67.593613,76.871887 67.304237,76.191673 67.014854,75.511467 
	C65.536736,76.108589 64.058617,76.705719 63.382931,76.978676 
	C61.934803,75.918022 60.849613,75.123192 59.394611,74.177788 
	C59.394611,74.177788 59.065014,74.403175 59.454647,74.179207 
	C59.591827,73.808304 59.467754,73.579140 59.494984,73.019150 
	C59.527843,72.812645 59.560703,72.606133 60.106800,72.070862 
	C60.008450,69.685974 59.910095,67.301079 59.898449,64.112221 
	C59.981056,62.770279 60.063663,61.428333 61.052231,60.013283 
	C63.873493,60.007000 66.734680,60.282238 69.501190,59.889881 
	C71.187080,59.650784 72.727104,58.383205 74.332649,57.577591 
	C74.085503,56.921844 73.838364,56.266102 73.591217,55.610359 
	C66.066887,56.077564 58.535866,56.469353 51.029091,57.134678 
	C50.318916,57.197620 49.760921,58.977596 48.978443,60.776443 
	C49.038540,62.159561 49.098637,63.542679 48.995281,65.752037 
M13.061494,52.917645 
	C16.757210,53.001522 20.452927,53.085403 24.826750,53.158833 
	C25.504871,53.162209 26.182995,53.165581 27.254574,53.761520 
	C28.544529,53.555538 29.834482,53.349560 31.880510,53.116138 
	C33.215561,52.839622 34.550613,52.563107 36.165581,52.228615 
	C33.625416,48.261597 31.452267,44.867756 29.258434,41.441608 
	C18.167952,41.044762 15.299919,42.926243 13.061494,52.917645 
M42.905846,77.027763 
	C44.339554,70.331001 38.201588,75.558197 36.879612,73.201126 
	C35.355934,74.605103 33.832256,76.009087 32.019901,77.679062 
	C31.396681,76.164124 30.669825,74.397270 29.942970,72.630417 
	C29.415514,72.711647 28.888058,72.792885 28.360601,72.874123 
	C28.575638,74.695358 28.338308,76.768318 29.162973,78.250313 
	C29.723097,79.256889 31.736340,79.739006 33.164783,79.908920 
	C35.108776,80.140160 37.160446,80.081795 39.078575,79.704025 
	C40.414909,79.440826 41.604553,78.432777 42.905846,77.027763 
M16.407389,72.800400 
	C14.826859,72.892441 13.246331,72.984489 11.215658,73.102753 
	C12.140530,75.300842 12.832027,76.944283 13.523525,78.587730 
	C13.894018,78.854759 14.264512,79.121788 14.635005,79.388817 
	C15.383361,73.711464 18.463339,74.724197 21.755404,75.577614 
	C21.684772,77.005661 21.622620,78.262344 21.561985,79.488297 
	C23.651896,79.488297 25.508839,79.488297 27.365782,79.488297 
	C27.713703,79.103523 28.061626,78.718750 28.409548,78.333977 
	C26.874340,76.513214 25.663155,74.067749 23.709219,73.054276 
	C21.897552,72.114594 19.292246,72.705040 16.407389,72.800400 
M98.314117,73.289307 
	C98.080147,75.377022 97.846176,77.464737 97.599342,79.667213 
	C100.975975,80.002525 103.752060,80.782722 103.667267,76.735962 
	C103.601799,73.611824 102.447403,71.563522 98.314117,73.289307 
M45.041451,73.165939 
	C42.981159,78.806290 43.602505,79.950958 48.414722,79.357544 
	C48.499355,77.772942 48.915497,76.101112 48.531075,74.639908 
	C48.333954,73.890663 46.706242,73.517792 45.041451,73.165939 
M112.222168,77.236977 
	C110.825874,75.069275 110.825874,75.069275 108.099648,79.211311 
	C110.075768,78.503181 111.031197,78.160805 112.222168,77.236977 
M122.766975,76.396172 
	C122.073448,76.356102 121.379913,76.316040 120.112640,76.242821 
	C121.154961,77.586281 121.786453,78.400208 122.888481,79.820610 
	C123.017578,78.295792 123.079636,77.562859 122.766975,76.396172 
z"/>
<path fill="#000000" opacity="1.000000" stroke="none" 
	d="
M78.000000,1.000000 
	C93.920036,1.000000 109.840065,1.000000 126.000000,1.000000 
	C126.000000,14.019913 126.000000,27.041298 125.611931,40.554878 
	C123.696007,40.929268 122.168144,40.811466 119.726456,40.623203 
	C121.340508,39.452137 122.105232,38.897301 123.115456,38.164341 
	C121.268822,37.869423 119.692635,37.617699 117.714455,37.269794 
	C114.503593,36.480679 111.694740,35.787746 109.162354,34.874634 
	C110.543304,33.046288 111.857277,31.536657 112.676743,29.794439 
	C113.200882,28.680090 112.994431,27.222103 113.115509,25.918175 
	C112.002792,25.831423 110.865227,25.555326 109.782524,25.697361 
	C107.532204,25.992569 105.310959,26.509417 102.886810,26.714348 
	C102.143250,26.332487 101.590637,26.171444 100.839760,25.767214 
	C99.718628,25.032684 98.795746,24.541342 97.831039,23.640888 
	C97.524628,20.155106 97.260033,17.078434 97.214203,13.802884 
	C97.286728,12.741064 97.140488,11.878121 96.856049,10.731227 
	C92.723488,7.601181 92.339737,13.007502 89.571533,13.575811 
	C89.347511,13.675714 88.993675,14.015498 88.582390,14.031708 
	C85.447731,13.366331 82.724350,12.684747 79.799576,11.704365 
	C79.065445,7.937045 78.532722,4.468523 78.000000,1.000000 
z"/>
<path fill="#31326F" opacity="1.000000" stroke="none" 
	d="
M48.083286,108.962601 
	C46.808090,108.012550 45.532894,107.062492 44.520737,105.690956 
	C45.859535,104.833206 46.935291,104.396942 48.310493,104.081284 
	C49.469398,103.106064 50.328861,102.010254 51.365482,100.919601 
	C51.542637,100.924751 51.895031,100.962967 51.913456,101.367775 
	C51.970448,102.849564 52.009014,103.926544 52.128189,105.307030 
	C53.506939,105.766449 54.805077,105.922363 56.283142,106.110046 
	C56.463062,106.141808 56.823040,106.204575 57.143532,106.403107 
	C63.071312,108.931557 68.530434,107.209091 74.320251,105.938538 
	C77.061302,104.969345 79.534004,104.150902 81.872147,103.047333 
	C82.222084,102.882179 81.941025,101.380104 81.954987,100.475235 
	C81.958099,100.453972 82.001076,100.453323 82.232384,100.167671 
	C82.635254,99.426041 82.806808,98.970055 83.073868,98.379547 
	C83.324898,98.084412 83.506256,97.962090 84.023994,97.808319 
	C85.108788,97.510551 85.883018,97.282516 86.821960,97.312424 
	C87.498863,98.328651 88.011078,99.086929 89.126976,100.738907 
	C89.501488,98.065216 89.750229,96.289383 90.208534,94.334167 
	C90.934189,93.475273 91.450287,92.795769 92.268173,91.939316 
	C96.361237,89.481247 100.152496,87.200127 104.326981,84.975693 
	C105.482735,85.037186 106.255272,85.042000 107.232956,85.288025 
	C108.628258,86.350983 109.818405,87.172737 111.008545,87.994484 
	C111.008545,87.994484 111.000000,88.000610 111.128647,88.196396 
	C111.456123,88.642792 111.694305,88.847649 111.971840,89.006737 
	C112.269272,89.149872 112.523506,89.348343 112.804085,90.128510 
	C111.909782,91.775253 110.945923,92.895638 109.982071,94.016022 
	C99.434967,91.702370 95.593956,95.523277 97.366676,106.417297 
	C97.542831,107.499832 96.913940,108.713364 96.658684,109.866089 
	C95.349083,109.564415 93.786858,109.619911 92.771706,108.901924 
	C87.055359,104.858871 81.729355,104.756660 79.012932,109.556587 
	C77.681061,111.910011 78.092957,115.250275 77.857834,118.571960 
	C76.285645,119.000000 74.571281,119.000000 72.467957,118.612335 
	C71.432289,116.618454 71.147926,114.696304 70.072990,113.463493 
	C66.415993,109.269341 61.869804,109.521797 55.430908,114.037048 
	C54.772915,115.766098 54.386456,117.383049 54.000000,119.000000 
	C52.611111,119.000000 51.222221,119.000000 49.416664,119.000000 
	C49.146324,118.552223 49.292656,118.104446 49.564819,117.150482 
	C49.829155,116.438431 49.929459,116.215385 49.991573,115.975151 
	C49.744926,114.538452 49.498280,113.101761 49.354820,111.099327 
	C48.999771,110.009926 48.541531,109.486267 48.083286,108.962601 
z"/>
<path fill="#7C7B80" opacity="1.000000" stroke="none" 
	d="
M1.000000,67.399994 
	C2.000724,66.534958 3.392415,66.337761 3.928894,65.554672 
	C5.540904,63.201653 6.819408,60.620159 8.673124,58.391846 
	C12.763885,58.790154 16.409546,58.924412 20.055206,59.058674 
	C22.113373,63.183758 25.625998,60.132256 29.030235,60.534500 
	C33.275810,60.829109 37.131462,63.116055 40.088291,58.883167 
	C40.988380,60.390190 41.888470,61.897209 42.842674,63.821167 
	C42.896786,64.238106 43.136826,64.506287 43.136826,64.506287 
	C43.136826,64.506287 43.503178,64.277687 43.503178,64.277687 
	C43.572964,64.530800 43.642750,64.783920 43.337517,65.549393 
	C39.683735,66.347984 36.404980,66.634247 33.126221,66.920509 
	C32.389137,66.082550 31.652052,65.244591 30.393469,63.813763 
	C27.733076,70.819611 22.038263,70.677864 16.206179,70.523750 
	C11.442235,70.397865 6.668752,70.632965 1.449749,70.854004 
	C1.000000,69.933327 1.000000,68.866661 1.000000,67.399994 
z"/>
<path fill="#373676" opacity="1.000000" stroke="none" 
	d="
M77.571533,1.000000 
	C78.532722,4.468523 79.065445,7.937045 79.829788,11.985575 
	C79.686874,13.395964 79.312340,14.226345 78.599060,14.895525 
	C74.658241,14.203712 71.069557,13.532372 67.449776,13.187929 
	C64.657135,12.922194 61.825451,13.066719 58.595886,13.031393 
	C55.437218,13.662827 52.693787,14.291706 49.557610,14.933622 
	C48.120201,15.013557 47.075542,15.080456 46.141094,14.859196 
	C46.530800,13.806290 46.810291,13.041541 47.089783,12.276793 
	C47.616661,11.639297 48.143543,11.001802 49.197353,10.117367 
	C49.659389,9.195710 49.594494,8.520995 49.529598,7.846280 
	C49.690472,6.819770 49.851345,5.793259 50.234577,4.129681 
	C50.637959,2.661742 50.818981,1.830871 51.000000,1.000000 
	C52.066669,1.000000 53.133339,1.000000 54.576775,1.380421 
	C56.506840,7.823481 59.593014,10.083346 65.790489,9.046488 
	C70.069542,8.330587 72.459732,5.634104 72.000000,1.000000 
	C73.714355,1.000000 75.428719,1.000000 77.571533,1.000000 
z"/>
<path fill="#ACABAE" opacity="1.000000" stroke="none" 
	d="
M99.784248,46.101189 
	C99.895859,47.579403 100.007469,49.057621 100.151184,50.961033 
	C104.640045,50.961033 109.085129,51.035301 113.520805,50.864819 
	C114.060966,50.844059 114.550552,49.507290 115.512627,48.324997 
	C119.307785,47.579716 122.653893,47.289860 126.000000,47.000000 
	C126.000000,48.066669 126.000000,49.133339 126.000000,50.600002 
	C117.599686,51.708828 109.209511,52.667137 100.794289,53.008862 
	C97.217529,53.154106 93.525352,52.232506 90.037163,51.255001 
	C89.356216,51.064175 89.374596,48.377823 89.554153,46.425308 
	C93.286682,46.039135 96.535461,46.070160 99.784248,46.101189 
z"/>
<path fill="#000101" opacity="1.000000" stroke="none" 
	d="
M55.702438,113.924950 
	C61.869804,109.521797 66.415993,109.269341 70.072990,113.463493 
	C71.147926,114.696304 71.432289,116.618454 72.039490,118.612335 
	C66.645073,119.000000 61.290142,119.000000 55.466721,118.628342 
	C55.232964,116.812775 55.467701,115.368858 55.702438,113.924950 
z"/>
<path fill="#010101" opacity="1.000000" stroke="none" 
	d="
M71.532394,1.000000 
	C72.459732,5.634104 70.069542,8.330587 65.790489,9.046488 
	C59.593014,10.083346 56.506840,7.823481 54.976768,1.380421 
	C60.354931,1.000000 65.709862,1.000000 71.532394,1.000000 
z"/>
<path fill="#636269" opacity="1.000000" stroke="none" 
	d="
M126.000000,70.555832 
	C124.692924,70.933266 123.385620,70.805305 122.078804,70.810013 
	C115.123215,70.835068 115.123253,70.846573 115.533936,63.369133 
	C119.381599,62.987694 122.690796,62.993847 126.000000,63.000000 
	C126.000000,65.370560 126.000000,67.741112 126.000000,70.555832 
z"/>
<path fill="#A7A7AB" opacity="1.000000" stroke="none" 
	d="
M126.000000,62.583336 
	C122.690796,62.993847 119.381599,62.987694 115.627594,62.937824 
	C114.137451,61.936333 113.232651,60.449745 112.018517,60.127052 
	C109.188263,59.374821 106.209183,59.182564 103.690475,58.373444 
	C111.393700,57.988956 118.696854,57.994476 126.000000,58.000000 
	C126.000000,59.388889 126.000000,60.777779 126.000000,62.583336 
z"/>
<path fill="#717075" opacity="1.000000" stroke="none" 
	d="
M118.116455,37.365974 
	C119.692635,37.617699 121.268822,37.869423 123.115456,38.164341 
	C122.105232,38.897301 121.340508,39.452137 119.726456,40.623203 
	C122.168144,40.811466 123.696007,40.929268 125.611931,41.023537 
	C126.000000,41.750000 126.000000,42.500000 125.586655,43.616875 
	C121.830231,44.667522 118.487144,45.351299 115.144066,46.035080 
	C115.974167,43.930988 116.804268,41.826893 117.830353,39.115185 
	C118.056381,38.127037 118.086418,37.746502 118.116455,37.365974 
z"/>
<path fill="#353769" opacity="1.000000" stroke="none" 
	d="
M1.000000,73.437500 
	C2.455977,73.461761 3.911955,73.923515 5.772544,74.513596 
	C6.040242,74.197510 6.767070,73.339317 8.432143,71.373306 
	C8.651479,74.916458 8.791828,77.183670 8.892047,78.802612 
	C6.098094,79.255302 3.875329,79.615440 1.326282,79.987793 
	C1.000000,77.958336 1.000000,75.916664 1.000000,73.437500 
z"/>
<path fill="#C9C8CD" opacity="1.000000" stroke="none" 
	d="
M126.000000,57.666668 
	C118.696854,57.994476 111.393700,57.988956 103.648895,57.970161 
	C104.125298,57.305202 105.029510,56.112915 105.963615,56.089020 
	C112.326492,55.926235 118.695656,56.009369 125.531395,56.006569 
	C126.000000,56.444447 126.000000,56.888889 126.000000,57.666668 
z"/>
<path fill="#8D8C91" opacity="1.000000" stroke="none" 
	d="
M115.087692,46.369202 
	C118.487144,45.351299 121.830231,44.667522 125.586655,43.991875 
	C126.000000,44.750000 126.000000,45.500000 126.000000,46.625000 
	C122.653893,47.289860 119.307785,47.579716 115.571426,47.954964 
	C115.131218,47.594677 115.081268,47.149002 115.087692,46.369202 
z"/>
<path fill="#25255D" opacity="1.000000" stroke="none" 
	d="
M55.430908,114.037048 
	C55.467701,115.368858 55.232964,116.812775 54.999115,118.628342 
	C55.000000,119.000000 54.500000,119.000000 54.250000,119.000000 
	C54.386456,117.383049 54.772915,115.766098 55.430908,114.037048 
z"/>
<path fill="#30306A" opacity="1.000000" stroke="none" 
	d="
M50.666668,1.000000 
	C50.818981,1.830871 50.637959,2.661742 50.249077,3.738311 
	C49.795101,3.187158 49.548977,2.390305 49.151428,1.296726 
	C49.444447,1.000000 49.888889,1.000000 50.666668,1.000000 
z"/>
<path fill="#838388" opacity="1.000000" stroke="none" 
	d="
M83.973801,33.013809 
	C83.496750,32.686008 83.019707,32.358204 82.114006,31.762966 
	C81.466248,31.282646 81.210144,31.133135 80.917046,31.046999 
	C80.917046,31.046999 80.986847,31.015354 80.901550,30.735102 
	C79.532135,30.009296 78.248016,29.563744 76.963898,29.118189 
	C65.309494,25.272699 54.177677,26.082170 42.991066,32.885010 
	C39.911793,32.254032 37.556335,31.588966 35.225250,30.728928 
	C35.249619,30.533953 35.371582,30.159698 35.546555,30.080006 
	C35.947056,29.842251 36.071991,29.626059 36.275925,29.234612 
	C36.736641,28.983881 36.877911,28.761755 37.170872,28.273556 
	C38.259235,27.697668 39.056049,27.299337 40.144844,26.992134 
	C43.345119,25.515179 46.253418,23.947098 49.151970,22.279694 
	C49.142223,22.180372 49.011673,22.029396 49.353115,22.039604 
	C50.362007,21.913191 51.029453,21.776571 52.110565,21.719139 
	C62.301094,21.978443 72.224007,20.445080 81.867165,24.556963 
	C83.370758,25.544060 84.696205,26.258326 86.260681,27.212219 
	C87.256355,28.961004 88.013016,30.470158 88.426788,32.055218 
	C86.713867,32.425350 85.343834,32.719582 83.973801,33.013809 
M66.489769,23.527184 
	C66.489769,23.527184 66.469818,23.478785 66.489769,23.527184 
z"/>
<path fill="#30306A" opacity="1.000000" stroke="none" 
	d="
M46.728409,12.365452 
	C46.810291,13.041541 46.530800,13.806290 46.088379,15.130877 
	C45.233570,16.414021 44.670776,17.514078 43.829803,17.802210 
	C35.639107,20.608490 29.157259,25.434525 25.034241,33.495049 
	C25.025934,34.226025 25.019396,34.643669 24.612211,35.071682 
	C22.146826,35.414574 20.082087,35.747093 17.733606,36.007072 
	C17.257402,35.901695 17.064939,35.868851 16.872475,35.836002 
	C15.700504,33.487675 14.528533,31.139347 12.988950,28.054420 
	C13.170520,27.787548 13.972547,26.608728 14.846857,25.323666 
	C19.417444,27.285833 23.988808,28.533405 27.881853,24.625114 
	C31.659344,20.832829 30.253807,16.427034 28.388323,11.970846 
	C29.500536,11.032947 30.589291,10.114829 32.050770,8.882400 
	C36.046455,13.364688 40.536057,16.075199 46.728409,12.365452 
z"/>
<path fill="#97969B" opacity="1.000000" stroke="none" 
	d="
M49.674389,47.367516 
	C50.259300,46.325027 50.844215,45.282543 52.061169,44.162613 
	C53.769108,43.820690 54.845013,43.556217 56.393364,43.266251 
	C65.249878,43.252056 73.633934,43.263363 82.258301,43.476761 
	C83.700951,44.097393 84.903290,44.515938 86.105637,44.934483 
	C87.740280,48.430092 86.543037,50.048737 82.770950,50.040710 
	C75.526398,50.025295 68.281769,50.041950 60.255024,49.851891 
	C57.663609,49.185406 55.862019,48.679893 54.042637,48.249561 
	C52.597843,47.907829 51.131283,47.658096 49.674389,47.367516 
z"/>
<path fill="#9B9A9E" opacity="1.000000" stroke="none" 
	d="
M26.861116,53.168957 
	C26.182995,53.165581 25.504871,53.162209 24.279221,52.772858 
	C20.199934,52.279552 16.668177,52.172218 13.136417,52.064888 
	C15.299919,42.926243 18.167952,41.044762 29.258434,41.441608 
	C31.452267,44.867756 33.625416,48.261597 36.165581,52.228615 
	C34.550613,52.563107 33.215561,52.839622 31.317699,52.785576 
	C29.456964,52.692997 28.159040,52.930977 26.861116,53.168957 
z"/>
<path fill="#25255D" opacity="1.000000" stroke="none" 
	d="
M48.011047,103.960686 
	C46.935291,104.396942 45.859535,104.833206 44.320915,105.408546 
	C43.858055,105.547623 43.477093,105.445251 43.284981,104.989716 
	C39.411518,102.001877 35.730171,99.469574 31.994783,96.851326 
	C31.940746,96.765381 31.658451,96.782845 31.658451,96.782845 
	C31.658451,96.782845 31.944633,97.043327 31.924540,97.428101 
	C31.807278,101.686829 29.365906,105.836296 33.247818,109.242569 
	C32.180065,109.405396 31.112312,109.568222 30.044559,109.731041 
	C29.881010,108.534462 29.400442,107.280571 29.604719,106.150482 
	C31.067743,98.056831 30.212362,96.064621 23.389862,92.524857 
	C23.425182,90.055397 23.690016,88.007927 24.293606,85.964287 
	C25.083717,85.985855 25.535072,86.003593 26.107880,86.340157 
	C29.727852,89.389229 33.226372,92.119476 37.070946,94.915787 
	C38.294624,95.308029 39.172249,95.634216 40.269371,96.204742 
	C42.307747,97.274925 44.126629,98.100754 46.160938,99.139877 
	C46.927544,99.583618 47.478722,99.814072 48.166641,100.190994 
	C48.303387,100.337448 48.437550,100.715065 48.203903,100.791855 
	C47.702393,101.125069 47.434525,101.381485 47.166656,101.637894 
	C47.405037,101.774010 47.643417,101.910126 47.896133,102.365997 
	C47.943996,103.110725 47.977520,103.535706 48.011047,103.960686 
M26.500872,91.758324 
	C26.500872,91.758324 26.395895,92.109528 26.395895,92.109528 
	C26.395895,92.109528 26.644627,91.884537 26.500872,91.758324 
z"/>
<path fill="#818085" opacity="1.000000" stroke="none" 
	d="
M62.042664,93.893257 
	C69.705353,93.530327 76.974731,91.896049 84.015015,87.133667 
	C85.719696,87.010445 86.739548,87.061134 87.778366,87.141998 
	C87.797348,87.172165 87.866959,87.156769 87.888550,87.476845 
	C87.239410,89.438148 87.019318,91.938828 85.818260,92.568565 
	C81.164017,95.008881 76.231071,96.939613 71.322128,98.855736 
	C70.184830,99.299652 67.789948,99.357018 67.575974,98.877426 
	C66.024155,95.399132 63.204098,97.663284 61.095856,96.801514 
	C61.435387,95.605637 61.739025,94.749443 62.042664,93.893257 
z"/>
<path fill="#818186" opacity="1.000000" stroke="none" 
	d="
M61.806808,93.564209 
	C61.739025,94.749443 61.435387,95.605637 61.064888,97.138947 
	C59.864494,98.287956 58.493938,99.428505 57.635540,99.124214 
	C51.654865,97.004211 45.780346,94.584740 39.644516,91.977646 
	C40.282040,89.798744 41.146854,87.903450 42.011673,86.008156 
	C47.797054,90.404686 54.184975,93.170502 61.806808,93.564209 
z"/>
<path fill="#3A3D4F" opacity="1.000000" stroke="none" 
	d="
M103.943756,84.919006 
	C100.152496,87.200127 96.361237,89.481247 92.208206,91.589439 
	C90.519943,89.996597 89.193451,88.576683 87.866959,87.156769 
	C87.866959,87.156769 87.797348,87.172165 87.968292,86.953873 
	C88.085854,85.802879 88.032463,84.870163 87.979080,83.937454 
	C89.907898,82.963356 91.782639,81.306732 93.776108,81.148819 
	C98.855530,80.746429 103.987984,81.013420 109.687607,81.321159 
	C110.522560,82.378082 110.769119,83.126404 111.015686,83.874733 
	C110.740120,84.095551 110.464561,84.316368 109.696198,84.747482 
	C108.726372,84.908867 108.249352,84.859970 107.739609,84.416756 
	C102.630188,83.559837 97.553482,83.097229 92.476784,82.634628 
	C92.457954,83.272186 92.439133,83.909752 92.420303,84.547310 
	C94.241478,84.547310 96.064262,84.499214 97.883400,84.560165 
	C99.905251,84.627922 101.923782,84.795097 103.943756,84.919006 
z"/>
<path fill="#BCBBBE" opacity="1.000000" stroke="none" 
	d="
M49.132275,59.960407 
	C49.760921,58.977596 50.318916,57.197620 51.029091,57.134678 
	C58.535866,56.469353 66.066887,56.077564 73.591217,55.610359 
	C73.838364,56.266102 74.085503,56.921844 74.332649,57.577591 
	C72.727104,58.383205 71.187080,59.650784 69.501190,59.889881 
	C66.734680,60.282238 63.873493,60.007000 60.134563,60.046799 
	C55.855354,60.040344 52.493816,60.000374 49.132275,59.960407 
z"/>
<path fill="#737378" opacity="1.000000" stroke="none" 
	d="
M84.113724,33.332996 
	C85.343834,32.719582 86.713867,32.425350 88.737411,32.292591 
	C93.589722,33.308231 97.788513,34.162403 102.317345,35.021851 
	C103.083611,34.978832 103.519852,34.930546 104.293411,34.935120 
	C105.420555,35.652233 106.210373,36.316486 106.710648,37.037308 
	C105.922180,37.651936 105.423256,38.209999 104.924332,38.768063 
	C102.769455,38.815411 100.550240,38.546818 98.471931,38.970119 
	C92.542961,40.177696 88.138535,37.702629 84.113724,33.332996 
z"/>
<path fill="#2A2D5A" opacity="1.000000" stroke="none" 
	d="
M42.882782,77.392609 
	C41.604553,78.432777 40.414909,79.440826 39.078575,79.704025 
	C37.160446,80.081795 35.108776,80.140160 33.164783,79.908920 
	C31.736340,79.739006 29.723097,79.256889 29.162973,78.250313 
	C28.338308,76.768318 28.575638,74.695358 28.360601,72.874123 
	C28.888058,72.792885 29.415514,72.711647 29.942970,72.630417 
	C30.669825,74.397270 31.396681,76.164124 32.019901,77.679062 
	C33.832256,76.009087 35.355934,74.605103 36.879612,73.201126 
	C38.201588,75.558197 44.339554,70.331001 42.882782,77.392609 
z"/>
<path fill="#262852" opacity="1.000000" stroke="none" 
	d="
M59.764423,74.328362 
	C60.849613,75.123192 61.934803,75.918022 63.382931,76.978676 
	C64.058617,76.705719 65.536736,76.108589 67.014854,75.511467 
	C67.304237,76.191673 67.593613,76.871887 67.882996,77.552101 
	C65.898445,78.335594 63.970680,79.504852 61.915340,79.807381 
	C59.191765,80.208282 56.339058,80.172722 53.601223,79.838432 
	C52.348202,79.685425 50.376087,78.482803 50.256607,77.558807 
	C50.061638,76.050987 50.747437,74.020676 51.805458,72.937134 
	C52.310986,72.419418 54.523941,73.568916 55.963543,73.963272 
	C55.845093,74.401154 55.726639,74.839035 55.608189,75.276909 
	C54.487507,75.422127 53.366829,75.567337 52.246151,75.712555 
	C54.544212,77.231895 56.835598,78.502106 57.328373,74.407181 
	C57.365135,74.101669 57.632591,73.823929 58.198563,73.356705 
	C58.763691,73.283997 58.923061,73.387863 59.082428,73.491722 
	C59.467754,73.579140 59.591827,73.808304 59.206558,74.581894 
	C59.066147,75.689079 59.173828,76.393585 59.281509,77.098091 
	C59.570213,77.033371 60.113705,76.945282 60.110226,76.907349 
	C60.031094,76.044373 59.892155,75.186882 59.764423,74.328362 
z"/>
<path fill="#3C3B7F" opacity="1.000000" stroke="none" 
	d="
M32.048820,96.937271 
	C35.730171,99.469574 39.411518,102.001877 43.258179,104.875954 
	C42.570572,105.346291 41.717655,105.474854 40.331474,105.346573 
	C39.177734,105.333183 38.557262,105.576653 37.936790,105.820122 
	C36.536243,106.813385 35.135700,107.806648 33.491486,109.021240 
	C29.365906,105.836296 31.807278,101.686829 31.951811,97.402786 
	C31.999176,96.992699 32.048820,96.937271 32.048820,96.937271 
z"/>
<path fill="#B7B6BA" opacity="1.000000" stroke="none" 
	d="
M89.187332,63.937057 
	C88.678802,55.949318 90.123558,54.932911 100.169922,56.511520 
	C99.416588,58.442078 98.691879,60.299263 97.603149,62.555374 
	C96.511665,63.165871 95.784210,63.377441 94.631760,63.600647 
	C92.799011,63.736515 91.391235,63.860744 89.784912,63.965130 
	C89.586349,63.945282 89.187332,63.937057 89.187332,63.937057 
z"/>
<path fill="#505058" opacity="1.000000" stroke="none" 
	d="
M25.012859,35.061310 
	C25.019396,34.643669 25.025934,34.226025 25.364368,33.452972 
	C26.493954,32.757458 27.291643,32.417358 28.496216,32.068756 
	C31.002361,31.681473 33.101620,31.302687 35.200878,30.923901 
	C37.556335,31.588966 39.911793,32.254032 42.639736,32.965851 
	C41.874062,34.250267 40.735901,35.487930 38.930305,36.865967 
	C37.498302,37.008320 36.733730,37.010300 35.677086,36.807976 
	C33.774029,36.237560 32.177879,35.769459 30.548122,35.532467 
	C28.718878,35.266464 26.859262,35.209320 25.012859,35.061310 
z"/>
<path fill="#292A58" opacity="1.000000" stroke="none" 
	d="
M16.721897,72.711060 
	C19.292246,72.705040 21.897552,72.114594 23.709219,73.054276 
	C25.663155,74.067749 26.874340,76.513214 28.409548,78.333977 
	C28.061626,78.718750 27.713703,79.103523 27.365782,79.488297 
	C25.508839,79.488297 23.651896,79.488297 21.561985,79.488297 
	C21.622620,78.262344 21.684772,77.005661 21.755404,75.577614 
	C18.463339,74.724197 15.383361,73.711464 14.635005,79.388817 
	C14.264512,79.121788 13.894018,78.854759 13.523525,78.587730 
	C12.832027,76.944283 12.140530,75.300842 11.215658,73.102753 
	C13.246331,72.984489 14.826859,72.892441 16.721897,72.711060 
z"/>
<path fill="#35374B" opacity="1.000000" stroke="none" 
	d="
M25.986427,86.021332 
	C25.535072,86.003593 25.083717,85.985855 24.099228,85.769913 
	C23.373466,85.059174 23.180841,84.546638 22.990112,83.674988 
	C22.986557,82.599808 22.981110,81.883743 22.975660,81.167686 
	C25.694206,81.138962 28.412754,81.110237 31.594505,81.430435 
	C32.377415,82.268494 32.697121,82.757645 33.016827,83.246788 
	C33.333080,82.582779 33.649330,81.918777 33.965584,81.254768 
	C35.505463,81.623329 37.045345,81.991890 38.367142,82.713470 
	C36.765804,84.709389 35.382549,86.352264 33.664093,87.830170 
	C30.881401,87.117233 28.433914,86.569283 25.986427,86.021332 
M26.493914,84.530952 
	C26.493914,84.530952 26.474947,84.484566 26.493914,84.530952 
z"/>
<path fill="#535363" opacity="1.000000" stroke="none" 
	d="
M58.935646,71.946770 
	C57.474884,71.597076 55.995178,70.890434 54.557022,70.966743 
	C50.729465,71.169853 48.421684,70.088013 49.444000,65.417068 
	C53.199062,65.026802 56.505402,64.971497 59.811745,64.916191 
	C59.910095,67.301079 60.008450,69.685974 59.684402,72.120140 
	C59.262009,72.169418 58.935646,71.946770 58.935646,71.946770 
z"/>
<path fill="#4F4F55" opacity="1.000000" stroke="none" 
	d="
M89.983467,63.984978 
	C91.391235,63.860744 92.799011,63.736515 94.763458,63.913414 
	C95.912712,64.506668 96.505287,64.798782 97.097870,65.090904 
	C98.015518,66.369614 98.933167,67.648315 99.850815,68.927025 
	C98.385498,69.569885 96.972778,70.498810 95.441048,70.780388 
	C93.679115,71.104286 91.811928,70.855591 89.225037,70.855591 
	C89.384712,69.350952 89.521782,68.059273 89.838867,66.072464 
	C90.007080,64.913216 89.995277,64.449097 89.983467,63.984978 
z"/>
<path fill="#808288" opacity="1.000000" stroke="none" 
	d="
M24.612211,35.071682 
	C26.859262,35.209320 28.718878,35.266464 30.548122,35.532467 
	C32.177879,35.769459 33.774029,36.237560 35.671936,37.092941 
	C35.931705,37.961391 35.904552,38.340565 35.877396,38.719738 
	C30.268620,38.734993 24.659845,38.750252 18.584829,38.402645 
	C18.084843,37.386391 18.051096,36.732998 18.017349,36.079609 
	C20.082087,35.747093 22.146826,35.414574 24.612211,35.071682 
z"/>
<path fill="#939296" opacity="1.000000" stroke="none" 
	d="
M59.855095,64.514206 
	C56.505402,64.971497 53.199062,65.026802 49.525726,65.003952 
	C49.098637,63.542679 49.038540,62.159561 49.055359,60.368423 
	C52.493816,60.000374 55.855354,60.040344 59.681580,60.083351 
	C60.063663,61.428333 59.981056,62.770279 59.855095,64.514206 
z"/>
<path fill="#282B5C" opacity="1.000000" stroke="none" 
	d="
M87.987373,79.043259 
	C83.678436,78.950836 79.369499,78.858406 75.288383,78.344528 
	C76.350357,76.996056 77.184509,76.069046 78.018661,75.142036 
	C80.102699,74.458344 82.186729,73.774651 84.712143,73.444229 
	C86.098129,75.546089 87.042755,77.294670 87.987373,79.043259 
z"/>
<path fill="#B8B6BA" opacity="1.000000" stroke="none" 
	d="
M39.882256,58.564186 
	C37.131462,63.116055 33.275810,60.829109 29.262104,60.213772 
	C28.111700,59.036793 27.364454,57.966129 25.876595,55.834301 
	C31.399124,56.697075 36.036385,53.855919 39.882256,58.564186 
z"/>
<path fill="#B9BABD" opacity="1.000000" stroke="none" 
	d="
M49.404137,47.703251 
	C51.131283,47.658096 52.597843,47.907829 54.042637,48.249561 
	C55.862019,48.679893 57.663609,49.185406 59.793549,49.846680 
	C61.254742,50.934566 62.395260,51.834251 63.442062,52.660004 
	C59.133930,52.660004 54.354534,52.660004 49.133888,52.660004 
	C49.133888,51.192020 49.133888,49.615501 49.404137,47.703251 
z"/>
<path fill="#3C3C80" opacity="1.000000" stroke="none" 
	d="
M22.988216,84.034103 
	C23.180841,84.546638 23.373466,85.059174 23.760471,85.766083 
	C23.690016,88.007927 23.425182,90.055397 23.038235,92.400864 
	C22.510031,92.720444 22.103939,92.742035 21.270950,92.500320 
	C19.356575,90.277962 15.178813,95.391808 14.992716,90.011360 
	C15.230160,89.762596 15.467605,89.513840 16.233719,89.046158 
	C17.180647,87.925735 17.598907,87.024239 18.017170,86.122734 
	C18.017170,86.122734 18.015459,86.038078 18.391207,85.994598 
	C20.174042,85.312119 21.581129,84.673111 22.988216,84.034103 
z"/>
<path fill="#3C3F54" opacity="1.000000" stroke="none" 
	d="
M22.990112,83.674980 
	C21.581129,84.673111 20.174042,85.312119 18.430141,85.977982 
	C16.634771,85.322182 15.230295,84.460922 13.704891,83.999016 
	C11.453309,83.317223 9.115685,82.919579 6.814704,82.400925 
	C6.882420,81.956734 6.950136,81.512535 7.017852,81.068344 
	C12.028316,81.068344 17.038778,81.068344 22.512451,81.118011 
	C22.981110,81.883743 22.986557,82.599808 22.990112,83.674980 
z"/>
<path fill="#3C3F54" opacity="1.000000" stroke="none" 
	d="
M33.999290,87.995148 
	C35.382549,86.352264 36.765804,84.709389 38.487000,83.047256 
	C39.818108,83.818024 40.811279,84.608040 41.908058,85.703102 
	C41.146854,87.903450 40.282040,89.798744 39.670849,92.343536 
	C39.966274,93.982147 40.008072,94.971275 40.049873,95.960403 
	C39.172249,95.634216 38.294624,95.308029 37.124977,94.559601 
	C35.888405,92.089958 34.943848,90.042549 33.999290,87.995148 
z"/>
<path fill="#5F5F61" opacity="1.000000" stroke="none" 
	d="
M82.017990,43.274666 
	C73.633934,43.263363 65.249878,43.252056 56.511349,42.991051 
	C56.417114,42.218204 56.677349,41.695061 56.937584,41.171913 
	C64.991974,41.121143 73.046371,41.070374 81.561195,41.444519 
	C82.020409,42.337841 82.019196,42.806255 82.017990,43.274666 
z"/>
<path fill="#2D3060" opacity="1.000000" stroke="none" 
	d="
M88.263245,79.302155 
	C87.042755,77.294670 86.098129,75.546089 85.085175,73.474281 
	C86.127785,73.182716 87.238762,73.213737 88.349693,73.246178 
	C89.962265,73.293274 92.602852,72.796394 92.976349,73.500923 
	C93.788940,75.033760 93.960182,77.379158 93.337975,78.982880 
	C93.063698,79.689819 90.217590,79.398933 88.263245,79.302155 
z"/>
<path fill="#D8D7DB" opacity="1.000000" stroke="none" 
	d="
M20.035942,59.035896 
	C16.409546,58.924412 12.763885,58.790154 9.002855,58.270844 
	C12.164565,53.395702 16.290386,54.376450 20.544796,56.832043 
	C20.394367,58.074448 20.227463,58.564655 20.060558,59.054867 
	C20.060558,59.054867 20.016676,59.013115 20.035942,59.035896 
z"/>
<path fill="#57565C" opacity="1.000000" stroke="none" 
	d="
M33.240295,67.269066 
	C36.404980,66.634247 39.683735,66.347984 43.363289,65.942398 
	C44.775448,67.213730 45.786812,68.604408 47.715012,71.255775 
	C42.008572,69.715561 36.678677,73.689789 33.240295,67.269066 
z"/>
<path fill="#716F74" opacity="1.000000" stroke="none" 
	d="
M99.876717,45.689453 
	C96.535461,46.070160 93.286682,46.039135 89.594894,46.041473 
	C88.362411,38.509670 95.418137,44.050091 97.410088,41.131355 
	C98.263123,42.513477 99.116158,43.895599 99.876717,45.689453 
z"/>
<path fill="#2D2F5F" opacity="1.000000" stroke="none" 
	d="
M98.541817,73.097549 
	C102.447403,71.563522 103.601799,73.611824 103.667267,76.735962 
	C103.752060,80.782722 100.975975,80.002525 97.599342,79.667213 
	C97.846176,77.464737 98.080147,75.377022 98.541817,73.097549 
z"/>
<path fill="#525357" opacity="1.000000" stroke="none" 
	d="
M105.384506,38.858231 
	C105.423256,38.209999 105.922180,37.651936 106.913696,36.861282 
	C107.899490,36.117401 108.392685,35.606110 108.885880,35.094814 
	C111.694740,35.787746 114.503593,36.480679 117.714455,37.269791 
	C118.086418,37.746502 118.056381,38.127037 117.989212,38.791817 
	C113.916275,39.033508 109.880486,38.990955 105.384506,38.858231 
z"/>
<path fill="#2B2F5B" opacity="1.000000" stroke="none" 
	d="
M45.383255,73.070381 
	C46.706242,73.517792 48.333954,73.890663 48.531075,74.639908 
	C48.915497,76.101112 48.499355,77.772942 48.408318,79.357132 
	C43.602505,79.950958 42.981159,78.806290 45.383255,73.070381 
z"/>
<path fill="#1C1F54" opacity="1.000000" stroke="none" 
	d="
M77.737396,75.012527 
	C77.184509,76.069046 76.350357,76.996056 75.185623,78.001297 
	C74.004463,78.709221 73.153885,79.338913 71.545746,80.529434 
	C71.545746,77.634277 71.545746,75.632988 71.545746,73.251328 
	C73.617409,73.823250 75.536766,74.353134 77.737396,75.012527 
z"/>
<path fill="#41415B" opacity="1.000000" stroke="none" 
	d="
M111.434357,83.912048 
	C110.769119,83.126404 110.522560,82.378082 110.157196,81.357605 
	C113.491219,81.085442 116.944046,81.085442 120.396873,81.085442 
	C120.428246,81.583588 120.459618,82.081734 120.490990,82.579880 
	C117.611664,83.036369 114.732346,83.492859 111.434357,83.912048 
z"/>
<path fill="#55555A" opacity="1.000000" stroke="none" 
	d="
M17.733606,36.007072 
	C18.051096,36.732998 18.084843,37.386391 18.126961,38.367928 
	C15.255675,38.696079 12.376019,38.696079 9.496361,38.696079 
	C9.451183,38.245125 9.406005,37.794174 9.360826,37.343220 
	C11.601645,36.887524 13.842463,36.431831 16.477879,35.906067 
	C17.064939,35.868851 17.257402,35.901695 17.733606,36.007072 
z"/>
<path fill="#E4E5E8" opacity="1.000000" stroke="none" 
	d="
M13.098955,52.491264 
	C16.668177,52.172218 20.199934,52.279552 23.940168,52.778084 
	C20.452927,53.085403 16.757210,53.001522 13.098955,52.491264 
z"/>
<path fill="#25255D" opacity="1.000000" stroke="none" 
	d="
M14.684092,90.037659 
	C15.178813,95.391808 19.356575,90.277962 20.966696,92.474869 
	C19.199055,93.549858 17.308771,94.386978 14.983727,95.416641 
	C15.050813,93.513908 10.431072,92.655968 14.684092,90.037659 
z"/>
<path fill="#707073" opacity="1.000000" stroke="none" 
	d="
M82.258293,43.476757 
	C82.019196,42.806255 82.020409,42.337841 82.026512,41.519802 
	C84.118820,41.238575 87.188713,40.023933 86.091843,44.601654 
	C84.903290,44.515938 83.700951,44.097393 82.258293,43.476757 
z"/>
<path fill="#27265B" opacity="1.000000" stroke="none" 
	d="
M110.133949,94.254913 
	C110.945923,92.895638 111.909782,91.775253 112.935242,90.333481 
	C113.307220,90.978027 114.132332,92.541740 113.832932,92.799561 
	C112.874748,93.624657 111.499870,93.965828 110.133949,94.254913 
z"/>
<path fill="#343574" opacity="1.000000" stroke="none" 
	d="
M112.104401,77.527702 
	C111.031197,78.160805 110.075768,78.503181 108.099648,79.211311 
	C110.825874,75.069275 110.825874,75.069275 112.104401,77.527702 
z"/>
<path fill="#707073" opacity="1.000000" stroke="none" 
	d="
M56.590935,41.126942 
	C56.677349,41.695061 56.417114,42.218204 56.038895,43.016548 
	C54.845013,43.556217 53.769108,43.820690 52.345901,44.042007 
	C53.413822,43.026554 54.829052,42.054260 56.590935,41.126942 
z"/>
<path fill="#545660" opacity="1.000000" stroke="none" 
	d="
M87.709114,84.071922 
	C88.032463,84.870163 88.085854,85.802879 87.949310,86.923706 
	C86.739548,87.061134 85.719696,87.010445 84.312286,86.947609 
	C83.960747,86.597038 84.118561,86.330795 84.822800,85.947922 
	C85.546097,85.642754 85.767853,85.441612 85.912712,85.155685 
	C86.421524,84.839256 86.930336,84.522827 87.709114,84.071922 
z"/>
<path fill="#E4E5E8" opacity="1.000000" stroke="none" 
	d="
M27.057846,53.465240 
	C28.159040,52.930977 29.456964,52.692997 30.939663,52.799297 
	C29.834482,53.349560 28.544529,53.555538 27.057846,53.465240 
z"/>
<path fill="#737378" opacity="1.000000" stroke="none" 
	d="
M77.127151,29.407749 
	C78.248016,29.563744 79.532135,30.009296 80.881454,30.767727 
	C79.727898,30.619505 78.509155,30.158407 77.127151,29.407749 
z"/>
<path fill="#2F2F68" opacity="1.000000" stroke="none" 
	d="
M122.954330,76.613052 
	C123.079636,77.562859 123.017578,78.295792 122.888481,79.820610 
	C121.786453,78.400208 121.154961,77.586281 120.112640,76.242821 
	C121.379913,76.316040 122.073448,76.356102 122.954330,76.613052 
z"/>
<path fill="#27265B" opacity="1.000000" stroke="none" 
	d="
M107.772331,84.811066 
	C108.249352,84.859970 108.726372,84.908867 109.562271,84.978073 
	C110.263046,85.782211 110.604942,86.566032 110.977692,87.672173 
	C109.818405,87.172737 108.628258,86.350983 107.412498,85.208580 
	C107.386879,84.887924 107.772331,84.811066 107.772331,84.811066 
z"/>
<path fill="#3C3F54" opacity="1.000000" stroke="none" 
	d="
M33.644897,81.205856 
	C33.649330,81.918777 33.333080,82.582779 33.016827,83.246788 
	C32.697121,82.757645 32.377415,82.268494 32.043922,81.491478 
	C32.461491,81.188049 32.892849,81.172493 33.644897,81.205856 
z"/>
<path fill="#535363" opacity="1.000000" stroke="none" 
	d="
M59.579517,74.253075 
	C59.892155,75.186882 60.031094,76.044373 60.110226,76.907349 
	C60.113705,76.945282 59.570213,77.033371 59.281509,77.098091 
	C59.173828,76.393585 59.066147,75.689079 59.011742,74.693878 
	C59.065014,74.403175 59.394611,74.177788 59.579517,74.253075 
z"/>
<path fill="#87868A" opacity="1.000000" stroke="none" 
	d="
M97.369339,64.928345 
	C96.505287,64.798782 95.912712,64.506668 95.188438,63.901779 
	C95.784210,63.377441 96.511665,63.165871 97.532509,62.945759 
	C97.764198,63.546738 97.702499,64.156258 97.369339,64.928345 
z"/>
<path fill="#3C3F54" opacity="1.000000" stroke="none" 
	d="
M17.729784,86.246155 
	C17.598907,87.024239 17.180647,87.925735 16.469749,88.936157 
	C16.598875,88.153236 17.020638,87.261398 17.729784,86.246155 
z"/>
<path fill="#55555A" opacity="1.000000" stroke="none" 
	d="
M36.203598,38.806107 
	C35.904552,38.340565 35.931705,37.961391 35.964008,37.297249 
	C36.733730,37.010300 37.498302,37.008320 38.644997,37.007374 
	C38.194683,37.636433 37.362240,38.264454 36.203598,38.806107 
z"/>
<path fill="#30306A" opacity="1.000000" stroke="none" 
	d="
M49.412788,8.106397 
	C49.594494,8.520995 49.659389,9.195710 49.476273,9.967983 
	C49.250832,9.499199 49.273407,8.932856 49.412788,8.106397 
z"/>
<path fill="#25255D" opacity="1.000000" stroke="none" 
	d="
M38.200623,105.854225 
	C38.557262,105.576653 39.177734,105.333183 39.902203,105.348465 
	C39.492283,105.700912 38.978367,105.794624 38.200623,105.854225 
z"/>
<path fill="#25255D" opacity="1.000000" stroke="none" 
	d="
M48.130402,109.258614 
	C48.541531,109.486267 48.999771,110.009926 49.326229,110.733963 
	C48.855469,110.474426 48.516491,110.014526 48.130402,109.258614 
z"/>
<path fill="#7C7B80" opacity="1.000000" stroke="none" 
	d="
M20.345776,59.019566 
	C20.227463,58.564655 20.394367,58.074448 20.734570,57.236774 
	C20.815575,57.587631 20.723284,58.285946 20.345776,59.019566 
z"/>
<path fill="#87868A" opacity="1.000000" stroke="none" 
	d="
M89.784912,63.965126 
	C89.995277,64.449097 90.007080,64.913216 90.006638,65.725891 
	C89.667633,65.574081 89.340881,65.073723 89.100723,64.255211 
	C89.187332,63.937057 89.586349,63.945282 89.784912,63.965126 
z"/>
<path fill="#25255D" opacity="1.000000" stroke="none" 
	d="
M49.828682,116.089676 
	C49.929459,116.215385 49.829155,116.438431 49.578697,116.786621 
	C49.376011,116.644302 49.442360,116.402718 49.828682,116.089676 
z"/>
<path fill="#737378" opacity="1.000000" stroke="none" 
	d="
M81.003906,31.289488 
	C81.210144,31.133135 81.466248,31.282646 81.840378,31.657406 
	C81.693863,31.723516 81.392319,31.627747 81.003906,31.289488 
z"/>
<path fill="#27265B" opacity="1.000000" stroke="none" 
	d="
M111.880432,88.779228 
	C111.694305,88.847649 111.456123,88.642792 111.130417,88.192154 
	C111.334564,88.081528 111.596397,88.268059 111.880432,88.779228 
z"/>
<path fill="#57565C" opacity="1.000000" stroke="none" 
	d="
M43.430164,64.169846 
	C43.503178,64.277687 43.136826,64.506287 43.136826,64.506287 
	C43.136826,64.506287 42.896786,64.238106 42.998554,64.128357 
	C43.100323,64.018616 43.357151,64.062004 43.430164,64.169846 
z"/>
<path fill="#535363" opacity="1.000000" stroke="none" 
	d="
M59.288704,73.255432 
	C58.923061,73.387863 58.763691,73.283997 58.351849,73.046814 
	C58.099579,72.579185 58.239159,72.319870 58.726875,72.041168 
	C58.935646,71.946770 59.262009,72.169418 59.427788,72.284515 
	C59.560703,72.606133 59.527843,72.812645 59.288704,73.255432 
z"/>
<path fill="#818085" opacity="1.000000" stroke="none" 
	d="
M85.663506,85.169586 
	C85.767853,85.441612 85.546097,85.642754 85.049011,85.873375 
	C84.941101,85.651314 85.129005,85.383263 85.663506,85.169586 
z"/>
<path fill="#363771" opacity="1.000000" stroke="none" 
	d="
M109.162354,34.874634 
	C108.392685,35.606110 107.899490,36.117401 107.203239,36.804718 
	C106.210373,36.316486 105.420555,35.652233 104.231773,34.606533 
	C101.263794,31.475866 98.694778,28.726646 96.074005,25.677946 
	C95.947830,24.982460 95.873413,24.586456 95.852654,24.139244 
	C95.906319,24.088034 96.013588,23.985546 96.323608,23.997162 
	C97.046707,24.022520 97.459793,24.036259 97.872871,24.049999 
	C98.795746,24.541342 99.718628,25.032684 100.875702,26.003494 
	C101.765862,26.633698 102.421806,26.784431 103.077759,26.935165 
	C105.310959,26.509417 107.532204,25.992569 109.782524,25.697361 
	C110.865227,25.555326 112.002792,25.831423 113.115509,25.918175 
	C112.994431,27.222103 113.200882,28.680090 112.676743,29.794439 
	C111.857277,31.536657 110.543304,33.046288 109.162354,34.874634 
z"/>
<path fill="#363771" opacity="1.000000" stroke="none" 
	d="
M96.994255,11.015179 
	C97.140488,11.878121 97.286728,12.741064 96.937859,13.873524 
	C96.299698,17.423876 96.156647,20.704710 96.013588,23.985546 
	C96.013588,23.985546 95.906319,24.088034 95.560135,24.042749 
	C94.463165,23.629583 93.712379,23.261700 92.773514,22.709213 
	C92.095291,22.336279 91.605164,22.147949 90.942810,21.684055 
	C89.204834,20.310532 87.639084,19.212576 85.809593,17.970675 
	C85.008461,17.562918 84.471069,17.299107 83.734573,16.900162 
	C83.286476,16.555384 83.085861,16.306705 83.322083,16.008511 
	C85.471588,15.337181 87.232628,14.676340 88.993675,14.015499 
	C88.993675,14.015498 89.347511,13.675714 89.763245,13.839653 
	C92.450737,13.007455 94.722496,12.011316 96.994255,11.015179 
M93.502228,15.473472 
	C93.502228,15.473472 93.517891,15.513930 93.502228,15.473472 
z"/>
<path fill="#2F2E68" opacity="1.000000" stroke="none" 
	d="
M88.582390,14.031708 
	C87.232628,14.676340 85.471588,15.337181 83.016464,16.089699 
	C81.216461,16.783127 80.110519,17.384878 79.007812,17.619606 
	C78.986633,16.520628 78.962219,15.788677 78.937805,15.056726 
	C79.312340,14.226345 79.686874,13.395964 80.031189,12.284372 
	C82.724350,12.684747 85.447731,13.366331 88.582390,14.031708 
z"/>
<path fill="#2F2E68" opacity="1.000000" stroke="none" 
	d="
M96.856049,10.731227 
	C94.722496,12.011316 92.450737,13.007455 89.987259,13.739751 
	C92.339737,13.007502 92.723488,7.601181 96.856049,10.731227 
z"/>
<path fill="#2F2E68" opacity="1.000000" stroke="none" 
	d="
M96.323608,23.997162 
	C96.156647,20.704710 96.299698,17.423876 96.719093,14.072401 
	C97.260033,17.078434 97.524628,20.155106 97.831039,23.640888 
	C97.459793,24.036259 97.046707,24.022520 96.323608,23.997162 
z"/>
<path fill="#2F2E68" opacity="1.000000" stroke="none" 
	d="
M102.886810,26.714348 
	C102.421806,26.784431 101.765862,26.633698 101.073959,26.246681 
	C101.590637,26.171444 102.143250,26.332487 102.886810,26.714348 
z"/>
<path fill="#545660" opacity="1.000000" stroke="none" 
	d="
M40.269371,96.204742 
	C40.008072,94.971275 39.966274,93.982147 39.898140,92.627129 
	C45.780346,94.584740 51.654865,97.004211 57.635540,99.124214 
	C58.493938,99.428505 59.864494,98.287956 61.028996,97.478638 
	C63.204098,97.663284 66.024155,95.399132 67.575974,98.877426 
	C67.789948,99.357018 70.184830,99.299652 71.322128,98.855736 
	C76.231071,96.939613 81.164017,95.008881 85.818260,92.568565 
	C87.019318,91.938828 87.239410,89.438148 87.888550,87.476845 
	C89.193451,88.576683 90.519943,89.996597 91.906410,91.766388 
	C91.450287,92.795769 90.934189,93.475273 89.920387,94.510239 
	C88.626717,95.254761 87.830757,95.643814 86.751640,95.913727 
	C85.550140,96.489075 84.631790,97.183563 83.713440,97.878052 
	C83.506256,97.962090 83.324898,98.084412 82.802490,98.644775 
	C82.290771,99.514122 82.145927,99.983719 82.001076,100.453323 
	C82.001076,100.453323 81.958099,100.453972 81.546127,100.451866 
	C79.092163,100.953239 77.050179,101.456718 74.719543,101.819588 
	C73.624107,101.462524 72.817329,101.246071 71.588310,101.028984 
	C64.742393,101.006554 58.318710,100.984756 51.895031,100.962967 
	C51.895031,100.962967 51.542637,100.924751 51.329937,100.917267 
	C51.117237,100.909782 51.054836,100.936485 50.922283,100.802216 
	C50.439034,100.717049 50.088341,100.766159 49.552372,100.784004 
	C49.367100,100.752739 48.995270,100.807068 48.856186,100.781952 
	C48.717106,100.756836 48.437550,100.715065 48.437550,100.715065 
	C48.437550,100.715065 48.303387,100.337448 47.979172,99.945580 
	C47.085140,99.344666 46.515327,99.135628 45.945511,98.926582 
	C44.126629,98.100754 42.307747,97.274925 40.269371,96.204742 
z"/>
<path fill="#181951" opacity="1.000000" stroke="none" 
	d="
M72.010551,101.029617 
	C72.817329,101.246071 73.624107,101.462524 74.556931,102.045761 
	C74.458061,103.607269 74.233131,104.802002 74.008209,105.996727 
	C68.530434,107.209091 63.071312,108.931557 57.319092,106.022034 
	C60.598064,104.961052 64.080688,104.718529 67.421028,103.897293 
	C69.085281,103.488136 70.488991,102.019173 72.010551,101.029617 
z"/>
<path fill="#21224F" opacity="1.000000" stroke="none" 
	d="
M71.588310,101.028976 
	C70.488991,102.019173 69.085281,103.488136 67.421028,103.897293 
	C64.080688,104.718529 60.598064,104.961052 56.998604,105.823502 
	C56.823040,106.204575 56.463062,106.141808 56.000702,105.880585 
	C54.374756,105.414078 53.211166,105.208801 52.047581,105.003525 
	C52.009014,103.926544 51.970448,102.849564 51.913456,101.367775 
	C58.318710,100.984756 64.742393,101.006554 71.588310,101.028976 
z"/>
<path fill="#21224F" opacity="1.000000" stroke="none" 
	d="
M74.320251,105.938538 
	C74.233131,104.802002 74.458061,103.607269 74.845589,102.186371 
	C77.050179,101.456718 79.092163,100.953239 81.543007,100.473129 
	C81.941025,101.380104 82.222084,102.882179 81.872147,103.047333 
	C79.534004,104.150902 77.061302,104.969345 74.320251,105.938538 
z"/>
<path fill="#828494" opacity="1.000000" stroke="none" 
	d="
M107.739609,84.416748 
	C107.772331,84.811066 107.386879,84.887924 107.207336,84.967361 
	C106.255272,85.042000 105.482735,85.037186 104.326981,84.975685 
	C101.923782,84.795097 99.905251,84.627922 97.883400,84.560165 
	C96.064262,84.499214 94.241478,84.547310 92.420303,84.547310 
	C92.439133,83.909752 92.457954,83.272186 92.476784,82.634628 
	C97.553482,83.097229 102.630188,83.559837 107.739609,84.416748 
z"/>
<path fill="#13124B" opacity="1.000000" stroke="none" 
	d="
M87.034790,96.032867 
	C87.830757,95.643814 88.626717,95.254761 89.710823,94.689621 
	C89.750229,96.289383 89.501488,98.065216 89.126976,100.738907 
	C88.011078,99.086929 87.498863,98.328651 86.936546,97.062996 
	C86.935883,96.381371 86.985336,96.207115 87.034790,96.032867 
z"/>
<path fill="#21224F" opacity="1.000000" stroke="none" 
	d="
M48.995270,100.807068 
	C48.995270,100.807068 49.367100,100.752739 49.881683,100.824554 
	C50.615791,100.909729 50.835312,100.923103 51.054836,100.936485 
	C51.054836,100.936485 51.117237,100.909782 51.152782,100.912109 
	C50.328861,102.010254 49.469398,103.106064 48.310493,104.081284 
	C47.977520,103.535706 47.943996,103.110725 48.125069,102.200974 
	C48.558205,101.413155 48.776737,101.110115 48.995270,100.807068 
z"/>
<path fill="#181951" opacity="1.000000" stroke="none" 
	d="
M52.128189,105.307030 
	C53.211166,105.208801 54.374756,105.414078 55.820778,105.848816 
	C54.805077,105.922363 53.506939,105.766449 52.128189,105.307030 
z"/>
<path fill="#3A3D4F" opacity="1.000000" stroke="none" 
	d="
M86.751640,95.913727 
	C86.985336,96.207115 86.935883,96.381371 86.771851,96.805054 
	C85.883018,97.282516 85.108788,97.510551 84.024002,97.808319 
	C84.631790,97.183563 85.550140,96.489075 86.751640,95.913727 
z"/>
<path fill="#21224F" opacity="1.000000" stroke="none" 
	d="
M82.232384,100.167671 
	C82.145927,99.983719 82.290771,99.514122 82.706985,98.779297 
	C82.806808,98.970055 82.635254,99.426041 82.232384,100.167671 
z"/>
<path fill="#26275A" opacity="1.000000" stroke="none" 
	d="
M28.089331,32.077255 
	C27.291643,32.417358 26.493954,32.757458 25.366138,33.139633 
	C29.157259,25.434525 35.639107,20.608490 43.829803,17.802210 
	C44.670776,17.514078 45.233570,16.414021 45.978165,15.419035 
	C47.075542,15.080456 48.120201,15.013557 49.569885,14.954559 
	C49.974911,14.962461 50.000935,15.000993 49.998615,15.406181 
	C49.668087,17.884045 49.339882,19.956720 49.011673,22.029396 
	C49.011673,22.029396 49.142223,22.180372 48.782829,22.194859 
	C45.689453,23.452166 42.955471,24.694983 39.892723,25.971172 
	C39.344055,25.991322 39.124153,25.978100 38.843826,25.711411 
	C37.542400,26.026045 36.301392,26.594145 35.185261,27.316376 
	C35.489540,27.668072 35.690380,27.840712 35.950775,28.330303 
	C36.024708,28.898697 36.060520,29.125214 36.096333,29.351732 
	C36.071991,29.626059 35.947056,29.842251 35.279854,29.893286 
	C33.467991,28.660114 31.869778,25.373739 31.071541,30.106882 
	C31.017509,30.035625 31.172562,30.123552 30.879564,30.135120 
	C29.754154,30.790209 28.921743,31.433733 28.089331,32.077255 
z"/>
<path fill="#242552" opacity="1.000000" stroke="none" 
	d="
M78.599060,14.895524 
	C78.962219,15.788677 78.986633,16.520628 78.856308,17.834393 
	C78.453217,18.664539 78.204872,18.912876 77.948074,19.122551 
	C77.939629,19.083887 78.016876,19.066647 77.765732,18.832460 
	C76.630493,18.404922 75.746407,18.211571 74.554985,18.203892 
	C68.827248,18.281065 63.406849,18.172565 58.051201,17.701061 
	C58.414341,15.901648 58.712730,14.465241 59.011124,13.028835 
	C61.825451,13.066719 64.657135,12.922194 67.449776,13.187929 
	C71.069557,13.532372 74.658241,14.203712 78.599060,14.895524 
z"/>
<path fill="#26275A" opacity="1.000000" stroke="none" 
	d="
M58.595886,13.031392 
	C58.712730,14.465241 58.414341,15.901648 57.839649,17.742296 
	C57.563351,18.146538 57.136383,18.208546 56.933983,17.897747 
	C54.488037,16.724964 52.244484,15.862979 50.000935,15.000993 
	C50.000935,15.000993 49.974911,14.962461 49.962631,14.941523 
	C52.693787,14.291706 55.437218,13.662827 58.595886,13.031392 
z"/>
<path fill="#61626A" opacity="1.000000" stroke="none" 
	d="
M57.136383,18.208546 
	C57.136383,18.208546 57.563351,18.146538 57.774902,18.105301 
	C63.406849,18.172565 68.827248,18.281065 74.782791,18.469662 
	C76.217575,18.722055 77.117226,18.894352 78.016876,19.066647 
	C78.016876,19.066647 77.939629,19.083887 78.123657,19.389015 
	C79.545708,21.116270 80.783745,22.538401 81.939484,24.042351 
	C81.857185,24.124172 81.689018,24.284132 81.689018,24.284132 
	C72.224007,20.445080 62.301094,21.978443 52.243404,21.456120 
	C53.687183,20.145454 55.411785,19.177000 57.136383,18.208546 
z"/>
<path fill="#4D4E55" opacity="1.000000" stroke="none" 
	d="
M101.987312,35.016579 
	C97.788513,34.162403 93.589722,33.308231 89.080292,32.216686 
	C88.013016,30.470158 87.256355,28.961004 86.275040,26.942200 
	C86.066742,26.252918 86.083099,26.073284 86.434540,25.919655 
	C87.812279,26.331926 88.854950,26.718191 90.137115,27.341103 
	C91.253456,27.705853 92.130310,27.833958 93.249420,28.195133 
	C96.323563,30.624327 99.155434,32.820454 101.987312,35.016579 
z"/>
<path fill="#242552" opacity="1.000000" stroke="none" 
	d="
M56.933983,17.897747 
	C55.411785,19.177000 53.687183,20.145454 51.829742,21.376930 
	C51.029453,21.776571 50.362007,21.913191 49.353115,22.039604 
	C49.339882,19.956720 49.668087,17.884045 49.998615,15.406181 
	C52.244484,15.862979 54.488037,16.724964 56.933983,17.897747 
z"/>
<path fill="#61626A" opacity="1.000000" stroke="none" 
	d="
M40.221489,25.937799 
	C42.955471,24.694983 45.689453,23.452166 48.792576,22.294182 
	C46.253418,23.947098 43.345119,25.515179 40.212002,26.741793 
	C40.065285,26.246149 40.143387,26.091974 40.221489,25.937799 
z"/>
<path fill="#2C2E50" opacity="1.000000" stroke="none" 
	d="
M28.496216,32.068756 
	C28.921743,31.433733 29.754154,30.790209 30.902508,30.153378 
	C31.218451,30.160067 31.125570,30.178139 31.125570,30.178139 
	C31.869778,25.373739 33.467991,28.660114 35.104881,29.972980 
	C35.371582,30.159698 35.249619,30.533953 35.225250,30.728928 
	C33.101620,31.302687 31.002361,31.681473 28.496216,32.068756 
z"/>
<path fill="#61626A" opacity="1.000000" stroke="none" 
	d="
M86.099464,25.893652 
	C86.083099,26.073284 86.066742,26.252918 86.036011,26.702572 
	C84.696205,26.258326 83.370758,25.544060 81.867165,24.556963 
	C81.689018,24.284132 81.857185,24.124172 82.203934,23.978481 
	C83.733604,24.519745 84.916534,25.206697 86.099464,25.893652 
z"/>
<path fill="#000000" opacity="1.000000" stroke="none" 
	d="
M39.892723,25.971172 
	C40.143387,26.091974 40.065285,26.246149 39.920029,26.650665 
	C39.056049,27.299337 38.259235,27.697668 37.264198,28.168312 
	C37.065979,28.240623 37.035343,27.977991 37.040794,27.738075 
	C37.046249,27.498161 37.143555,27.028162 37.379997,26.922680 
	C38.045712,26.533089 38.474979,26.248981 38.904247,25.964874 
	C39.124153,25.978100 39.344055,25.991322 39.892723,25.971172 
z"/>
<path fill="#61626A" opacity="1.000000" stroke="none" 
	d="
M66.479797,23.502983 
	C66.469818,23.478785 66.489769,23.527184 66.479797,23.502983 
z"/>
<path fill="#111249" opacity="1.000000" stroke="none" 
	d="
M36.275925,29.234612 
	C36.060520,29.125214 36.024708,28.898697 36.231705,28.316589 
	C36.661453,27.966661 36.848396,27.972326 37.035343,27.977991 
	C37.035343,27.977991 37.065979,28.240623 36.972652,28.345869 
	C36.877911,28.761755 36.736641,28.983881 36.275925,29.234612 
z"/>
<path fill="#030315" opacity="1.000000" stroke="none" 
	d="
M33.664089,87.830170 
	C34.943848,90.042549 35.888405,92.089958 36.778923,94.493546 
	C33.226372,92.119476 29.727852,89.389229 26.107880,86.340157 
	C28.433914,86.569283 30.881401,87.117233 33.664089,87.830170 
z"/>
<path fill="#282B55" opacity="1.000000" stroke="none" 
	d="
M48.856186,100.781952 
	C48.776737,101.110115 48.558205,101.413155 48.110733,101.881226 
	C47.643417,101.910126 47.405037,101.774010 47.166656,101.637894 
	C47.434525,101.381485 47.702393,101.125069 48.203903,100.791855 
	C48.437550,100.715065 48.717106,100.756836 48.856186,100.781952 
z"/>
<path fill="#3C3C80" opacity="1.000000" stroke="none" 
	d="
M26.572750,91.821426 
	C26.644627,91.884537 26.395895,92.109528 26.395895,92.109528 
	C26.395895,92.109528 26.500872,91.758324 26.572750,91.821426 
z"/>
<path fill="#282B55" opacity="1.000000" stroke="none" 
	d="
M46.160938,99.139877 
	C46.515327,99.135628 47.085140,99.344666 47.842430,99.799118 
	C47.478722,99.814072 46.927544,99.583618 46.160938,99.139877 
z"/>
<path fill="#3C3B7F" opacity="1.000000" stroke="none" 
	d="
M31.971905,97.018013 
	C31.944633,97.043327 31.658451,96.782845 31.658451,96.782845 
	C31.658451,96.782845 31.940746,96.765381 31.994783,96.851326 
	C32.048820,96.937271 31.999176,96.992699 31.971905,97.018013 
z"/>
<path fill="#2F2E68" opacity="1.000000" stroke="none" 
	d="
M102.317345,35.021851 
	C99.155434,32.820454 96.323563,30.624327 93.265884,27.967575 
	C93.040077,27.506948 93.090332,27.052771 93.404419,26.986042 
	C94.520920,26.605350 95.323341,26.291388 96.125763,25.977425 
	C98.694778,28.726646 101.263794,31.475866 103.894447,34.553673 
	C103.519852,34.930546 103.083611,34.978832 102.317345,35.021851 
z"/>
<path fill="#3C3F54" opacity="1.000000" stroke="none" 
	d="
M26.484430,84.507759 
	C26.474947,84.484566 26.493914,84.530952 26.484430,84.507759 
z"/>
<path fill="#1F1E51" opacity="1.000000" stroke="none" 
	d="
M96.074005,25.677944 
	C95.323341,26.291388 94.520920,26.605350 93.371323,26.722185 
	C93.015480,26.348261 93.006828,26.171465 92.992363,25.608170 
	C92.978233,24.445717 92.969917,23.669769 92.961601,22.893818 
	C93.712379,23.261700 94.463165,23.629583 95.506470,24.093960 
	C95.873413,24.586456 95.947830,24.982460 96.074005,25.677944 
z"/>
<path fill="#1F1E51" opacity="1.000000" stroke="none" 
	d="
M86.434540,25.919655 
	C84.916534,25.206697 83.733604,24.519745 82.286224,23.896660 
	C80.783745,22.538401 79.545708,21.116270 78.132103,19.427677 
	C78.204872,18.912876 78.453217,18.664539 78.853073,18.201416 
	C80.110519,17.384878 81.216461,16.783127 82.628014,16.100185 
	C83.085861,16.306705 83.286476,16.555384 83.654510,17.159098 
	C83.780212,18.140892 83.786865,18.728619 83.793518,19.316347 
	C84.553459,18.915771 85.313393,18.515196 86.073334,18.114620 
	C87.639084,19.212576 89.204834,20.310532 90.908432,22.070221 
	C91.024071,23.505241 91.001877,24.278528 90.761513,25.253176 
	C90.328102,26.004509 90.112862,26.554483 89.897621,27.104456 
	C88.854950,26.718191 87.812279,26.331926 86.434540,25.919655 
M88.530502,21.497576 
	C88.530502,21.497576 88.481445,21.518719 88.530502,21.497576 
z"/>
<path fill="#2F2E68" opacity="1.000000" stroke="none" 
	d="
M90.979683,25.051817 
	C91.001877,24.278528 91.024071,23.505241 91.080658,22.345787 
	C91.605164,22.147949 92.095291,22.336279 92.773514,22.709213 
	C92.969917,23.669769 92.978233,24.445717 92.715134,25.543709 
	C91.955696,25.594442 91.467690,25.323130 90.979683,25.051817 
z"/>
<path fill="#2F2E68" opacity="1.000000" stroke="none" 
	d="
M85.809593,17.970676 
	C85.313393,18.515196 84.553459,18.915771 83.793518,19.316347 
	C83.786865,18.728619 83.780212,18.140892 83.853622,17.294228 
	C84.471069,17.299107 85.008461,17.562918 85.809593,17.970676 
z"/>
<path fill="#2F2E68" opacity="1.000000" stroke="none" 
	d="
M93.510056,15.493701 
	C93.517891,15.513930 93.502228,15.473472 93.510056,15.493701 
z"/>
<path fill="#282B55" opacity="1.000000" stroke="none" 
	d="
M50.922283,100.802216 
	C50.835312,100.923103 50.615791,100.909729 50.066956,100.855820 
	C50.088341,100.766159 50.439034,100.717049 50.922283,100.802216 
z"/>
<path fill="#111249" opacity="1.000000" stroke="none" 
	d="
M38.843826,25.711409 
	C38.474979,26.248981 38.045712,26.533089 37.030296,26.927732 
	C35.982891,27.079594 35.521641,27.120918 35.060387,27.162245 
	C36.301392,26.594145 37.542400,26.026045 38.843826,25.711409 
z"/>
<path fill="#2C2E50" opacity="1.000000" stroke="none" 
	d="
M35.185261,27.316376 
	C35.521641,27.120918 35.982891,27.079594 36.793850,27.033215 
	C37.143555,27.028162 37.046249,27.498161 37.040794,27.738075 
	C36.848396,27.972326 36.661453,27.966661 36.193577,27.974712 
	C35.690380,27.840712 35.489540,27.668072 35.185261,27.316376 
z"/>
<path fill="#0C0B43" opacity="1.000000" stroke="none" 
	d="
M77.765732,18.832460 
	C77.117226,18.894352 76.217575,18.722055 75.090118,18.283989 
	C75.746407,18.211571 76.630493,18.404922 77.765732,18.832460 
z"/>
<path fill="#020334" opacity="1.000000" stroke="none" 
	d="
M90.761513,25.253176 
	C91.467690,25.323130 91.955696,25.594442 92.720932,25.930212 
	C93.006828,26.171465 93.015480,26.348261 93.057236,26.788914 
	C93.090332,27.052771 93.040077,27.506948 93.023621,27.734507 
	C92.130310,27.833958 91.253456,27.705853 90.137115,27.341103 
	C90.112862,26.554483 90.328102,26.004509 90.761513,25.253176 
z"/>
<path fill="#505058" opacity="1.000000" stroke="none" 
	d="
M31.071541,30.106882 
	C31.125570,30.178139 31.218451,30.160067 31.195507,30.141809 
	C31.172562,30.123552 31.017509,30.035625 31.071541,30.106882 
z"/>
<path fill="#2F2E68" opacity="1.000000" stroke="none" 
	d="
M88.505974,21.508148 
	C88.481445,21.518719 88.530502,21.497576 88.505974,21.508148 
z"/>
</svg>